<?xml version="1.0"?><svg width="640" height="480" xmlns="http://www.w3.org/2000/svg">
 <!-- Created with SVG-edit - http://svg-edit.googlecode.com/ -->
 <g>
  <title>Layer 1</title>
  <path id="svg_2" d="m143.5,51l-17,2l-18,-2l-2,27l-8,123c0,0 -6,14 -7,16c-1,2 -3,11 -4,12c-1,1 -5,115 -6,115c-1,0 -6,13 -7,13c-1,0 0,6 -2,12c-2,6 -2,19 -2,19c0,0 18,-1 18,-1c0,0 121,13 124,22c3,9 95,2 96,2c1,0 99,8 99,8c0,0 48,8 48,8c0,0 16,-1 21,-1c5,0 69,-2 69,-2c0,0 -3,-19 -3,-19c0,0 -2,-210 -2,-210c0,0 -2,-70 -2,-70c0,0 -5,-30 -5,-30c0,0 -103,-12 -103,-12c0,0 -16,-8 -16,-8c0,0 -113,-6 -113,-6c0,0 -14,-4 -14,-4c0,0 -9,-5 -9,-5c0,0 -121,-7 -121,-7l-14,-2z" stroke-linecap="null" stroke-linejoin="null" stroke-dasharray="null" stroke-width="2px" stroke="#000000" fill="#000000"/>
 </g>
</svg>