<svg width="184" height="36" viewBox="0 0 184 36" fill="none" xmlns="http://www.w3.org/2000/svg">
<path d="M4.11173 17.7402H11.3073V14.4H4.11173V10.7629H12.2618V7.27423H0V25.6082H12.8492V22.1938H4.11173V17.7402Z" fill="#00A19B"/>
<path d="M23.2754 13.9546C23.0551 14.7711 22.7614 15.5876 22.5411 16.4041C22.3209 17.2206 22.0272 18.0371 21.7335 18.7794C21.4398 19.5217 21.2195 20.2639 20.9992 20.932C20.779 20.2639 20.4853 19.5959 20.265 18.7794C20.0447 18.0371 19.751 17.2206 19.5308 16.4041C19.3105 15.5876 19.0168 14.7711 18.7965 13.9546C18.5763 13.1382 18.356 12.3959 18.2091 11.7278H14.0974C14.9051 14.5485 15.7862 17.0722 16.7407 19.4474C17.6952 21.8227 18.5763 23.901 19.4573 25.6083H22.688C23.5691 23.8268 24.4502 21.7485 25.4047 19.4474C26.3592 17.1464 27.1668 14.4742 28.0479 11.7278H24.0096C23.7159 12.3959 23.4957 13.1382 23.2754 13.9546Z" fill="#00A19B"/>
<path d="M35.6106 11.3567C34.8029 11.3567 33.9218 11.5051 33.1876 11.802C32.3799 12.099 31.7191 12.6185 31.0583 13.2124C30.4709 13.8062 29.9569 14.6227 29.5898 15.5134C29.2227 16.4041 29.0024 17.5175 29.0024 18.7794C29.0024 19.8185 29.1493 20.7835 29.443 21.6742C29.7367 22.5649 30.1772 23.3072 30.7646 23.9752C31.352 24.6433 32.1597 25.1629 33.0407 25.4598C33.9218 25.8309 35.0232 25.9794 36.2714 25.9794C36.7854 25.9794 37.2259 25.9794 37.7399 25.9051C38.2538 25.8309 38.6944 25.7567 39.1349 25.6825C39.5755 25.6082 39.9426 25.534 40.3097 25.3856C40.6768 25.3113 40.9705 25.1629 41.1174 25.0886L40.6034 21.8969C40.1629 22.1196 39.6489 22.268 38.9146 22.4165C38.2538 22.5649 37.5196 22.6392 36.7854 22.6392C35.684 22.6392 34.8029 22.4165 34.1421 21.8969C33.4813 21.4515 33.1142 20.7835 33.0407 19.967H41.8516C41.8516 19.7443 41.8516 19.5216 41.925 19.2247C41.925 18.9278 41.925 18.7051 41.925 18.4825C41.925 16.1072 41.3376 14.3258 40.2363 13.1381C39.1349 11.9505 37.593 11.3567 35.6106 11.3567ZM33.0407 17.2948C33.1142 16.9237 33.1876 16.6268 33.261 16.3299C33.4079 16.033 33.5547 15.7361 33.775 15.4392C33.9953 15.2165 34.2155 14.9938 34.5826 14.8453C34.8763 14.6969 35.2435 14.6227 35.684 14.6227C36.1245 14.6227 36.4917 14.6969 36.8588 14.8453C37.1525 14.9938 37.4462 15.2165 37.593 15.4392C37.8133 15.6618 37.9601 15.9588 38.0336 16.2557C38.107 16.5526 38.1804 16.9237 38.1804 17.2206H33.0407V17.2948Z" fill="#00A19B"/>
<path d="M52.2777 11.5794C51.984 11.5052 51.6904 11.5052 51.3967 11.5052C51.103 11.5052 50.8827 11.4309 50.6624 11.4309C49.4876 11.4309 48.4597 11.5052 47.5052 11.7278C46.5507 11.9505 45.743 12.1732 45.0088 12.3959V25.6083H48.9002V14.9938C49.0471 14.9196 49.3408 14.9196 49.7079 14.8454C50.075 14.7711 50.3687 14.7711 50.589 14.7711C51.103 14.7711 51.6169 14.8454 52.1309 14.9196C52.5714 14.9938 53.012 15.1423 53.3791 15.2165L54.0399 11.9505C53.8196 11.8763 53.5994 11.8021 53.3057 11.7278C52.8651 11.6536 52.5714 11.6536 52.2777 11.5794Z" fill="#00A19B"/>
<path d="M68.9449 23.4557C68.2107 23.6784 67.1827 23.8268 66.0079 23.8268C64.98 23.8268 64.0989 23.6784 63.3647 23.3072C62.6304 22.9361 61.9696 22.4907 61.4557 21.8227C60.9417 21.1546 60.5746 20.4124 60.2809 19.5217C60.0606 18.6309 59.9138 17.5918 59.9138 16.5526C59.9138 15.4392 60.0606 14.4 60.3543 13.5093C60.648 12.6186 61.0885 11.8021 61.6025 11.2083C62.1165 10.5402 62.7773 10.0949 63.585 9.72372C64.3192 9.35258 65.2003 9.20413 66.1548 9.20413C66.5953 9.20413 67.0359 9.27836 67.4764 9.35258C67.917 9.42681 68.3575 9.50104 68.7246 9.64949C69.0917 9.79794 69.4589 9.87217 69.7526 10.0206C70.0462 10.1691 70.2665 10.2433 70.4134 10.3918L71.1476 8.23918C71.0742 8.16495 70.8539 8.09073 70.5602 7.94227C70.2665 7.79382 69.8994 7.64537 69.4589 7.49691C69.0183 7.34846 68.5043 7.20001 67.917 7.12578C67.3296 7.05155 66.6688 6.97733 65.8611 6.97733C64.6863 6.97733 63.585 7.20001 62.4836 7.64537C61.4557 8.09073 60.5012 8.68454 59.7669 9.50104C58.9593 10.3175 58.3719 11.2825 57.9313 12.4701C57.4908 13.6577 57.2705 14.9938 57.2705 16.5526C57.2705 18.1113 57.4908 19.4474 57.8579 20.6351C58.2984 21.8227 58.8124 22.8619 59.6201 23.6041C60.3543 24.4206 61.2354 25.0144 62.3368 25.4598C63.3647 25.9052 64.5395 26.1278 65.7877 26.1278C66.5219 26.1278 67.1827 26.0536 67.8435 25.9794C68.5044 25.9052 69.0183 25.7567 69.4589 25.6825C69.8994 25.534 70.3399 25.4598 70.6336 25.3113C70.9273 25.1629 71.1476 25.0887 71.2945 25.0144L70.6336 22.8619C70.2665 22.9361 69.6791 23.1588 68.9449 23.4557Z" fill="#00A19B"/>
<path d="M83.9233 13.3608C83.4827 12.8412 82.8953 12.3959 82.2345 12.099C81.5003 11.8021 80.6192 11.6536 79.5178 11.6536C79.0039 11.6536 78.4899 11.7278 77.9759 11.8021C77.462 11.8763 76.948 12.0247 76.5075 12.2474V5.12164L74.0845 5.567V25.6825H76.5075V14.1773C76.5809 14.1773 76.7277 14.1031 76.948 14.0289C77.1683 13.9546 77.3885 13.9546 77.6088 13.8804C77.8291 13.8062 78.1228 13.8062 78.4165 13.732C78.7102 13.732 78.9304 13.6577 79.2241 13.6577C79.885 13.6577 80.3989 13.732 80.8395 13.8804C81.28 14.0289 81.6471 14.3258 81.8674 14.6969C82.1611 15.068 82.3079 15.5876 82.4548 16.1814C82.6016 16.7752 82.6016 17.5175 82.6016 18.334V25.534H85.0246V17.8887C85.0246 16.9237 84.9512 16.1072 84.7309 15.2907C84.6575 14.5484 84.3638 13.8804 83.9233 13.3608Z" fill="#00A19B"/>
<path d="M96.9928 12.9897C96.5523 12.5443 96.0383 12.1732 95.3775 11.8763C94.7166 11.6536 93.909 11.5052 92.8811 11.5052C92 11.5052 91.2657 11.5794 90.5315 11.7278C89.7973 11.8763 89.2833 12.0247 88.9896 12.1732L89.2833 14.1773C89.577 14.0289 90.0175 13.9546 90.6049 13.8062C91.1923 13.6577 91.9266 13.6577 92.7342 13.6577C93.395 13.6577 93.909 13.732 94.2761 13.9546C94.6432 14.1031 95.0103 14.4 95.2306 14.6969C95.4509 14.9938 95.5977 15.365 95.6712 15.7361C95.7446 16.1072 95.818 16.5526 95.818 16.9237V17.5918C95.7446 17.5918 95.5977 17.5175 95.4509 17.5175C95.304 17.5175 95.0838 17.4433 94.8635 17.3691C94.6432 17.2948 94.3495 17.2948 94.1293 17.2948C93.8356 17.2948 93.6153 17.2206 93.395 17.2206C92.6608 17.2206 91.9265 17.2948 91.1923 17.4433C90.4581 17.5918 89.8707 17.8144 89.3567 18.1856C88.8427 18.5567 88.4022 18.9278 88.1085 19.5217C87.8148 20.0412 87.668 20.7093 87.668 21.4515C87.668 22.268 87.8148 22.9361 88.0351 23.4557C88.3288 24.0495 88.6959 24.4948 89.1364 24.7918C89.577 25.1629 90.1644 25.3856 90.8252 25.534C91.486 25.6825 92.1468 25.7567 92.9545 25.7567C93.4684 25.7567 94.0558 25.7567 94.5698 25.6825C95.0838 25.6082 95.5977 25.6083 96.1117 25.534C96.5522 25.4598 96.9928 25.4598 97.3599 25.3856C97.727 25.3113 98.0207 25.3113 98.241 25.2371V16.7753C98.241 16.033 98.1676 15.2907 97.9473 14.6227C97.727 14.0289 97.4333 13.5093 96.9928 12.9897ZM95.7446 23.6784C95.4509 23.7526 95.0838 23.8268 94.6432 23.8268C94.2027 23.8268 93.6887 23.901 93.1013 23.901C92.1468 23.901 91.4126 23.7526 90.8252 23.3814C90.2378 23.0103 90.0175 22.4165 90.0175 21.5258C90.0175 21.0804 90.1644 20.6351 90.3846 20.3381C90.6049 20.0412 90.8986 19.8186 91.2657 19.6701C91.6329 19.5217 92 19.3732 92.3671 19.3732C92.8076 19.299 93.1748 19.299 93.5419 19.299C94.1293 19.299 94.5698 19.299 94.9369 19.3732C95.304 19.4474 95.5977 19.5217 95.818 19.5959V23.6784H95.7446Z" fill="#00A19B"/>
<path d="M107.639 11.7278C107.346 11.6536 107.125 11.6536 106.832 11.6536C106.538 11.6536 106.318 11.5794 106.097 11.5794C104.996 11.5794 104.041 11.6536 103.234 11.8763C102.353 12.0247 101.692 12.2474 101.104 12.4701V25.6825H103.527V14.1031C103.674 14.1031 103.968 14.0289 104.409 13.8804C104.849 13.8062 105.29 13.732 105.73 13.732C106.464 13.732 106.978 13.8062 107.419 13.8804C107.859 13.9546 108.153 14.0289 108.373 14.1031L108.814 11.9505C108.741 11.9505 108.52 11.8763 108.3 11.8021C108.153 11.8021 107.933 11.8021 107.639 11.7278Z" fill="#00A19B"/>
<path d="M115.496 11.5794C114.468 11.5794 113.513 11.7278 112.705 12.099C111.898 12.4701 111.164 12.9155 110.65 13.5093C110.062 14.1031 109.622 14.8454 109.328 15.6619C109.034 16.4783 108.887 17.4433 108.887 18.4082C108.887 19.5216 109.034 20.5608 109.328 21.3773C109.622 22.1938 110.062 22.8619 110.576 23.4557C111.09 23.9753 111.751 24.4206 112.485 24.7175C113.219 25.0144 113.954 25.0887 114.835 25.0887C115.642 25.0887 116.303 25.0144 116.964 24.7917C117.551 24.5691 117.992 24.4206 118.212 24.2722V24.866C118.212 26.1278 117.919 27.0928 117.258 27.6124C116.597 28.2062 115.569 28.5031 114.101 28.5031C113.366 28.5031 112.632 28.4289 111.898 28.2804C111.164 28.132 110.576 27.9835 110.136 27.7608L109.695 29.9134C110.282 30.1361 110.943 30.2845 111.678 30.433C112.412 30.5814 113.219 30.6557 114.101 30.6557C116.303 30.6557 117.919 30.2103 119.02 29.2454C120.121 28.2804 120.635 26.7216 120.635 24.6433V12.3216C120.048 12.1732 119.314 12.0247 118.506 11.8763C117.625 11.6536 116.597 11.5794 115.496 11.5794ZM118.139 22.1196C117.845 22.3423 117.405 22.5649 116.891 22.7876C116.377 22.9361 115.789 23.0845 115.128 23.0845C114.688 23.0845 114.174 23.0103 113.733 22.7876C113.293 22.6392 112.926 22.3423 112.559 21.9711C112.192 21.6 111.971 21.1546 111.751 20.5608C111.531 19.967 111.457 19.299 111.457 18.5567C111.457 17.1464 111.824 15.9588 112.485 15.1423C113.146 14.3258 114.174 13.8804 115.496 13.8804C116.23 13.8804 116.744 13.8804 117.184 13.9546C117.625 14.0289 117.919 14.1031 118.139 14.1773V22.1196Z" fill="#00A19B"/>
<path d="M129.152 11.5052C128.345 11.5052 127.611 11.6536 126.876 11.9505C126.142 12.2474 125.481 12.6928 124.894 13.2866C124.306 13.8804 123.866 14.6227 123.499 15.5134C123.132 16.4041 122.985 17.5175 122.985 18.7052C122.985 19.7443 123.132 20.7093 123.425 21.6C123.719 22.4907 124.086 23.233 124.674 23.8268C125.261 24.4948 125.922 24.9402 126.803 25.3113C127.684 25.6825 128.712 25.8309 129.887 25.8309C130.841 25.8309 131.649 25.7567 132.383 25.534C133.117 25.3856 133.631 25.1629 133.925 25.0144L133.558 22.9361C133.264 23.0845 132.824 23.233 132.236 23.3814C131.649 23.5299 130.915 23.6041 130.107 23.6041C128.565 23.6041 127.464 23.233 126.729 22.4907C125.995 21.7485 125.628 20.6351 125.481 19.2247H134.806C134.806 19.0763 134.806 18.9278 134.806 18.7794C134.806 18.6309 134.806 18.4825 134.806 18.334C134.806 15.9588 134.292 14.1773 133.338 13.0639C132.383 12.099 130.988 11.5052 129.152 11.5052ZM125.555 17.4433C125.628 16.9979 125.702 16.4784 125.848 16.033C125.995 15.5876 126.216 15.1423 126.509 14.8454C126.803 14.4742 127.17 14.1773 127.611 13.9546C128.051 13.732 128.565 13.6577 129.079 13.6577C130.107 13.6577 130.841 14.0289 131.429 14.6969C132.016 15.4392 132.236 16.3299 132.236 17.4433H125.555Z" fill="#00A19B"/>
<path d="M156.98 6.16083C155.952 6.16083 155.144 6.97732 155.144 8.0165C155.144 9.05567 155.952 9.87217 156.98 9.87217C158.008 9.87217 158.816 9.05567 158.816 8.0165C158.816 7.05155 158.008 6.16083 156.98 6.16083Z" fill="#00A19B"/>
<path d="M165.644 6.16083C164.616 6.16083 163.808 6.97732 163.808 8.0165C163.808 9.05567 164.616 9.87217 165.644 9.87217C166.672 9.87217 167.48 9.05567 167.48 8.0165C167.553 7.05155 166.672 6.16083 165.644 6.16083Z" fill="#00A19B"/>
<path d="M161.312 0C160.431 0 159.697 0.742268 159.697 1.63299C159.697 2.52371 160.431 3.26598 161.312 3.26598C162.193 3.26598 162.927 2.52371 162.927 1.63299C162.927 0.742268 162.193 0 161.312 0Z" fill="#00A19B"/>
<path d="M152.428 13.0639C151.18 13.0639 150.225 14.0289 150.225 15.2907C150.225 16.5526 151.18 17.5175 152.428 17.5175C153.676 17.5175 154.631 16.5526 154.631 15.2907C154.631 14.0289 153.676 13.0639 152.428 13.0639Z" fill="#00A19B"/>
<path d="M170.196 13.0639C168.948 13.0639 167.994 14.0289 167.994 15.2907C167.994 16.5526 168.948 17.5175 170.196 17.5175C171.445 17.5175 172.399 16.5526 172.399 15.2907C172.399 14.0289 171.371 13.0639 170.196 13.0639Z" fill="#00A19B"/>
<path d="M147.582 20.5608C146.113 20.5608 144.865 21.8227 144.865 23.3072C144.865 24.7917 146.113 26.0536 147.582 26.0536C149.05 26.0536 150.298 24.7917 150.298 23.3072C150.298 21.8227 149.05 20.5608 147.582 20.5608Z" fill="#00A19B"/>
<path d="M175.042 20.5608C173.574 20.5608 172.326 21.8227 172.326 23.3072C172.326 24.7917 173.574 26.0536 175.042 26.0536C176.511 26.0536 177.759 24.7917 177.759 23.3072C177.759 21.8227 176.584 20.5608 175.042 20.5608Z" fill="#00A19B"/>
<path d="M142.075 35.9258C143.94 35.9258 145.453 34.3971 145.453 32.5113C145.453 30.6256 143.94 29.0969 142.075 29.0969C140.21 29.0969 138.698 30.6256 138.698 32.5113C138.698 34.3971 140.21 35.9258 142.075 35.9258Z" fill="#00A19B"/>
<path d="M180.549 29.0969C178.64 29.0969 177.172 30.6557 177.172 32.5113C177.172 34.4412 178.714 35.9258 180.549 35.9258C182.458 35.9258 183.927 34.367 183.927 32.5113C184 30.5814 182.458 29.0969 180.549 29.0969Z" fill="#00A19B"/>
</svg>
