<svg width="481" height="606" viewBox="0 0 481 606" fill="none" xmlns="http://www.w3.org/2000/svg">
<path d="M308.065 603.33L465.226 507.938C469.786 505.169 473.556 501.283 476.173 496.651C478.79 492.019 480.168 486.797 480.174 481.485V181.072C480.167 175.642 478.729 170.308 476.003 165.603C473.276 160.897 469.357 156.984 464.635 154.252L204.422 4.26616C199.639 1.47279 194.191 0 188.643 0C183.095 0 177.648 1.47279 172.865 4.26616L8.28443 101.42C5.73282 102.919 3.62371 105.06 2.16952 107.628C0.715331 110.195 -0.032591 113.098 0.00108925 116.044C0.0347695 118.99 0.84886 121.876 2.36137 124.41C3.87388 126.943 6.0314 129.036 8.61662 130.478L266.32 274.447C271.145 277.147 275.161 281.074 277.957 285.826C280.752 290.577 282.226 295.982 282.228 301.487V589.022C282.208 592.027 283.001 594.982 284.525 597.578C286.048 600.174 288.245 602.315 290.886 603.778C293.527 605.24 296.514 605.97 299.537 605.892C302.559 605.813 305.504 604.928 308.065 603.33Z" fill="#00FFC1"/>
</svg>
