<svg width="367" height="606" viewBox="0 0 367 606" fill="none" xmlns="http://www.w3.org/2000/svg">
<path d="M194.065 603.33L351.226 507.938C355.786 505.169 359.556 501.283 362.173 496.651C364.79 492.019 366.168 486.797 366.174 481.485V181.072C366.167 175.642 364.729 170.308 362.003 165.603C359.276 160.897 355.357 156.984 350.635 154.252L90.4223 4.26616C85.6387 1.47279 80.1914 0 74.6434 0C69.0954 0 63.6481 1.47279 58.8645 4.26616L-105.716 101.42C-108.267 102.919 -110.376 105.06 -111.83 107.628C-113.285 110.195 -114.033 113.098 -113.999 116.044C-113.965 118.99 -113.151 121.876 -111.639 124.41C-110.126 126.943 -107.969 129.036 -105.383 130.478L152.32 274.447C157.145 277.147 161.161 281.074 163.957 285.826C166.752 290.577 168.226 295.982 168.228 301.487V589.022C168.208 592.027 169.001 594.982 170.525 597.578C172.048 600.174 174.245 602.315 176.886 603.778C179.527 605.24 182.514 605.97 185.537 605.892C188.559 605.813 191.504 604.928 194.065 603.33Z" fill="#00FFC1"/>
</svg>
