<svg width="37" height="30" viewBox="0 0 37 30" fill="none" xmlns="http://www.w3.org/2000/svg">
<path d="M37 3.52941C35.6381 4.14706 34.1702 4.55294 32.6491 4.74706C34.2055 3.81176 35.4082 2.32941 35.9742 0.547059C34.5062 1.42941 32.8791 2.04706 31.1635 2.4C29.7663 0.882353 27.8031 0 25.5746 0C21.4183 0 18.0225 3.38824 18.0225 7.57059C18.0225 8.17059 18.0932 8.75294 18.217 9.3C11.9207 8.98235 6.31405 5.96471 2.58222 1.39412C1.92782 2.50588 1.55641 3.81176 1.55641 5.18824C1.55641 7.81765 2.88289 10.1471 4.93451 11.4706C3.67878 11.4706 2.51147 11.1176 1.48566 10.5882C1.48566 10.5882 1.48566 10.5882 1.48566 10.6412C1.48566 14.3118 4.10325 17.3824 7.56979 18.0706C6.93308 18.2471 6.26099 18.3353 5.57122 18.3353C5.09369 18.3353 4.61616 18.2824 4.15631 18.1941C5.11138 21.1765 7.88815 23.4 11.2309 23.4529C8.64866 25.5 5.37667 26.7 1.80402 26.7C1.20268 26.7 0.601338 26.6647 0 26.5941C3.36042 28.7471 7.35755 30 11.6377 30C25.5746 30 33.2328 18.4588 33.2328 8.45294C33.2328 8.11765 33.2328 7.8 33.2151 7.4647C34.7008 6.40588 35.9742 5.06471 37 3.52941Z" fill="white"/>
</svg>
