<svg width="36" height="24" viewBox="0 0 36 24" fill="none" xmlns="http://www.w3.org/2000/svg">
<path d="M14.4 17.1429L23.742 12L14.4 6.85714V17.1429ZM35.208 3.72C35.442 4.52571 35.604 5.60571 35.712 6.97714C35.838 8.34857 35.892 9.53143 35.892 10.56L36 12C36 15.7543 35.712 18.5143 35.208 20.28C34.758 21.8229 33.714 22.8171 32.094 23.2457C31.248 23.4686 29.7 23.6229 27.324 23.7257C24.984 23.8457 22.842 23.8971 20.862 23.8971L18 24C10.458 24 5.76 23.7257 3.906 23.2457C2.286 22.8171 1.242 21.8229 0.792 20.28C0.558 19.4743 0.396 18.3943 0.288 17.0229C0.162 15.6514 0.108 14.4686 0.108 13.44L0 12C0 8.24571 0.288 5.48571 0.792 3.72C1.242 2.17714 2.286 1.18286 3.906 0.754286C4.752 0.531429 6.3 0.377143 8.676 0.274285C11.016 0.154285 13.158 0.102857 15.138 0.102857L18 0C25.542 0 30.24 0.274286 32.094 0.754286C33.714 1.18286 34.758 2.17714 35.208 3.72Z" fill="white"/>
</svg>
